<svg xmlns="http://www.w3.org/2000/svg" viewBox="0 0 800 800" width="800" height="800" preserveAspectRatio="xMidYMid meet" style="width: 100%; height: 100%; transform: translate3d(0px, 0px, 0px);"><defs><clipPath id="__lottie_element_2"><rect width="800" height="800" x="0" y="0"></rect></clipPath></defs><g clip-path="url(#__lottie_element_2)"><g transform="matrix(1,0,0,1,404,359.9800720214844)" opacity="1" style="display: block;"><g opacity="1" transform="matrix(1,0,0,1,0,0)"><path stroke-linecap="round" stroke-linejoin="miter" fill-opacity="0" stroke-miterlimit="4" stroke-dasharray=" 34.6 22.9 23" stroke-dashoffset="-1311.8497314453125" stroke="rgb(33,33,33)" stroke-opacity="1" stroke-width="6" d=" M-49,-41 C-55.602561950683594,-40.980533599853516 -258.5112609863281,-41.66355895996094 -265,-41"></path></g></g><g transform="matrix(1,0,0,1,369,419.9800720214844)" opacity="1" style="display: block;"><g opacity="1" transform="matrix(1,0,0,1,0,0)"><path stroke-linecap="round" stroke-linejoin="miter" fill-opacity="0" stroke-miterlimit="4" stroke-dasharray=" 57.6 20.2 71" stroke-dashoffset="-1731.655517578125" stroke="rgb(33,33,33)" stroke-opacity="1" stroke-width="6" d=" M-49,-41 C-103.0571060180664,-40.84062576293945 -211.87490844726562,-46.4327392578125 -265,-41"></path></g></g><g transform="matrix(0.9981153011322021,0.061366382986307144,-0.061366382986307144,0.9981153011322021,405.473876953125,422.6822814941406)" opacity="1" style="display: block;"><g opacity="1" transform="matrix(1,0,0,1,0,0)"><path fill="rgb(255,255,255)" fill-opacity="1" d=" M-58.25,-115.7080078125 C-58.25,-115.7080078125 -76.75,-57.40753936767578 -76.75,-57.40753936767578 C-76.75,-57.40753936767578 -103,-55.78253936767578 -103,-55.78253936767578 C-103,-55.78253936767578 -84.52520751953125,11.630270957946777 -84.52520751953125,11.630270957946777 C-84.52520751953125,11.630270957946777 157,-66.5 157,-66.5 C157,-66.5 -58.25,-115.7080078125 -58.25,-115.7080078125z"></path></g><g opacity="1" transform="matrix(1,0,0,1,0,0)"><path fill="rgb(255,255,255)" fill-opacity="1" d=" M-58.25,-115.7080078125 C-58.25,-115.7080078125 -76.75,-57.40753936767578 -76.75,-57.40753936767578 C-76.75,-57.40753936767578 -103,-55.78253936767578 -103,-55.78253936767578 C-103,-55.78253936767578 -93.82561492919922,-23.49363899230957 -93.82561492919922,-23.49363899230957 C-93.82561492919922,-23.49363899230957 157,-66.5 157,-66.5 C157,-66.5 -58.25,-115.7080078125 -58.25,-115.7080078125z"></path></g><g opacity="1" transform="matrix(1,0,0,1,0,0)"><path stroke-linecap="butt" stroke-linejoin="round" fill-opacity="0" stroke="rgb(33,33,33)" stroke-opacity="1" stroke-width="6" d=" M-58.25,-115.7080078125 C-58.25,-115.7080078125 -76.75,-57.40753936767578 -76.75,-57.40753936767578 C-76.75,-57.40753936767578 -103,-55.78253936767578 -103,-55.78253936767578 C-103,-55.78253936767578 -84.52520751953125,11.630270957946777 -84.52520751953125,11.630270957946777 C-84.52520751953125,11.630270957946777 157,-66.5 157,-66.5 C157,-66.5 -58.25,-115.7080078125 -58.25,-115.7080078125z"></path></g><g opacity="1" transform="matrix(1,0,0,1,0,0)"><path fill="rgb(52,59,165)" fill-opacity="1" d=" M37,-137.916015625 C37,-137.916015625 -58.125,-115.7080078125 -58.125,-115.7080078125 C-58.125,-115.7080078125 92.38339233398438,-81.24369812011719 92.38339233398438,-81.24369812011719 C92.38339233398438,-81.24369812011719 -109.64181518554688,-97.38445281982422 -109.64181518554688,-97.38445281982422 C-109.64181518554688,-97.38445281982422 -177,-44.891754150390625 -177,-44.891754150390625 C-177,-44.891754150390625 158.5,-66 158.5,-66 C158.5,-66 37,-137.916015625 37,-137.916015625z"></path><path stroke-linecap="round" stroke-linejoin="round" fill-opacity="0" stroke="rgb(33,33,33)" stroke-opacity="1" stroke-width="6" d=" M37,-137.916015625 C37,-137.916015625 -58.125,-115.7080078125 -58.125,-115.7080078125 C-58.125,-115.7080078125 92.38339233398438,-81.24369812011719 92.38339233398438,-81.24369812011719 C92.38339233398438,-81.24369812011719 -109.64181518554688,-97.38445281982422 -109.64181518554688,-97.38445281982422 C-109.64181518554688,-97.38445281982422 -177,-44.891754150390625 -177,-44.891754150390625 C-177,-44.891754150390625 158.5,-66 158.5,-66 C158.5,-66 37,-137.916015625 37,-137.916015625z"></path></g></g></g></svg>